<svg width="100" height="100" viewBox="0 0 100 100" fill="none" xmlns="http://www.w3.org/2000/svg">
<path fill-rule="evenodd" clip-rule="evenodd" d="M19.1196 24.2263C18.742 24.7836 18.2206 25.193 17.555 25.4538C16.8895 25.715 15.5691 25.8459 13.596 25.8459H10.8552V18.7519H13.2749C15.0792 18.7519 16.2804 18.8092 16.8784 18.9223C17.6905 19.0707 18.3612 19.4399 18.8916 20.0307C19.4214 20.6223 19.6868 21.3721 19.6868 22.2818C19.6868 23.0208 19.4976 23.6689 19.1196 24.2263ZM19.839 14.8979C18.9143 14.6475 16.9291 14.5225 13.8837 14.5225H5.84766V39.5225H10.8554V30.0925H14.1204C16.3876 30.0925 18.1189 29.9727 19.3141 29.7343C20.1948 29.5407 21.0599 29.1453 21.9119 28.549C22.7627 27.9525 23.4647 27.1307 24.018 26.0842C24.5706 25.0393 24.847 23.7489 24.847 22.2134C24.847 20.2242 24.3673 18.6014 23.4088 17.3449C22.4499 16.0891 21.2598 15.2729 19.839 14.8979Z" fill="#EEEEEE"/>
<path d="M32.2847 39.5225H27.6597V16.8975H32.1597V25.5225H32.3472C32.743 24.512 33.368 23.7308 34.2222 23.1787C35.0868 22.6162 36.1493 22.335 37.4097 22.335C38.5868 22.335 39.618 22.5902 40.5034 23.1006C41.3888 23.611 42.0711 24.3454 42.5503 25.3037C43.0399 26.262 43.2847 27.3975 43.2847 28.71V39.5225H38.6597V29.5225C38.6597 28.4704 38.3888 27.6527 37.8472 27.0693C37.3159 26.4756 36.5659 26.1787 35.5972 26.1787C34.6076 26.1787 33.8055 26.4912 33.1909 27.1162C32.5868 27.7412 32.2847 28.6058 32.2847 29.71V39.5225Z" fill="#EEEEEE"/>
<path fill-rule="evenodd" clip-rule="evenodd" d="M57.9772 34.7286C57.222 35.5861 56.2876 36.0148 55.1737 36.0148C54.0592 36.0148 53.1223 35.5861 52.3625 34.7286C51.603 33.8705 51.2233 32.6348 51.2233 31.0222C51.2233 29.4088 51.603 28.1734 52.3625 27.3156C53.1223 26.4582 54.0592 26.0295 55.1737 26.0295C56.2876 26.0295 57.222 26.4582 57.9772 27.3156C58.7318 28.1734 59.1088 29.3991 59.1088 30.9916C59.1088 32.6257 58.7318 33.8705 57.9772 34.7286ZM55.1582 22.5225C53.5782 22.5225 52.1475 22.8743 50.8666 23.5794C49.5843 24.2835 48.5948 25.3044 47.8957 26.642C47.1968 27.9796 46.8472 29.363 46.8472 30.7925C46.8472 32.6608 47.1968 34.2462 47.8957 35.5475C48.5948 36.8496 49.6148 37.8376 50.9574 38.5106C52.2994 39.1843 53.7101 39.5225 55.189 39.5225C57.5793 39.5225 59.5623 38.7127 61.1373 37.0943C62.7123 35.4764 63.5 33.4367 63.5 30.9754C63.5 28.536 62.7204 26.5165 61.1603 24.9192C59.5999 23.3216 57.5995 22.5225 55.1582 22.5225Z" fill="#EEEEEE"/>
<path d="M75.2499 26.0225H72.0624V34.3037C72.052 34.9391 72.1822 35.3818 72.453 35.6318C72.7343 35.8714 73.1353 36.0016 73.6561 36.0225C74.1353 36.0225 74.7499 35.9912 75.4999 35.9287V39.585C74.8124 39.6891 73.9739 39.7412 72.9843 39.7412C71.2551 39.7412 69.8957 39.3454 68.9061 38.5537C67.9166 37.7516 67.427 36.5537 67.4374 34.96V26.0225H65.0938V22.5537H67.4374V18.4912H72.0624V22.5537H75.2499V26.0225Z" fill="#EEEEEE"/>
<path fill-rule="evenodd" clip-rule="evenodd" d="M88.6301 34.7286C87.8748 35.5861 86.9405 36.0148 85.8266 36.0148C84.712 36.0148 83.7751 35.5861 83.0153 34.7286C82.2558 33.8705 81.8762 32.6348 81.8762 31.0222C81.8762 29.4088 82.2558 28.1734 83.0153 27.3156C83.7751 26.4582 84.712 26.0295 85.8266 26.0295C86.9405 26.0295 87.8748 26.4582 88.6301 27.3156C89.3846 28.1734 89.7616 29.3991 89.7616 30.9916C89.7616 32.6257 89.3846 33.8705 88.6301 34.7286ZM85.811 22.5225C84.231 22.5225 82.8004 22.8743 81.5194 23.5794C80.2371 24.2835 79.2476 25.3044 78.5485 26.642C77.8496 27.9796 77.5 29.363 77.5 30.7925C77.5 32.6608 77.8496 34.2462 78.5485 35.5475C79.2476 36.8496 80.2677 37.8376 81.6102 38.5106C82.9523 39.1843 84.3629 39.5225 85.8418 39.5225C88.2321 39.5225 90.2151 38.7127 91.7901 37.0943C93.3652 35.4764 94.1529 33.4367 94.1529 30.9754C94.1529 28.536 93.3732 26.5165 91.8132 24.9192C90.2527 23.3216 88.2524 22.5225 85.811 22.5225Z" fill="#EEEEEE"/>
<path fill-rule="evenodd" clip-rule="evenodd" d="M67.8276 44.5225H8.86912C7.03485 44.7298 6.02593 45.8603 5.84766 47.9242V82.0753C6.02416 84.136 7.03083 85.2621 8.85286 85.4778H67.8421C69.6648 85.2621 70.6708 84.1351 70.8477 82.0753V47.9242C70.6699 45.8603 69.6608 44.7298 67.8276 44.5225Z" fill="#FF9000"/>
<path fill-rule="evenodd" clip-rule="evenodd" d="M26.3693 60.2611C25.9281 59.6315 25.2726 59.1132 24.4012 58.708C23.6134 58.3417 22.7394 58.1423 21.7788 58.107C21.7622 58.106 21.7471 58.1049 21.7308 58.1041C19.7468 57.9976 17.2091 58.581 16.0248 59.7293V51.6826H11.3174V76.4382H16.0248V67.4556C16.0248 65.9465 16.1676 64.8068 16.4524 64.0361C16.7376 63.2636 17.1864 62.6869 17.8009 62.3042C18.4151 61.9219 19.1128 61.7299 19.8951 61.7299C20.576 61.7299 21.1437 61.8794 21.5954 62.1776C22.0476 62.4764 22.3634 62.879 22.5417 63.3853C22.7199 63.8924 22.8098 65.0851 22.8098 66.9649V76.4382H27.5169V65.918C27.5169 64.3085 27.4357 63.1205 27.2737 62.3556C27.112 61.5895 26.8099 60.8916 26.3693 60.2611Z" fill="black"/>
<path fill-rule="evenodd" clip-rule="evenodd" d="M41.7319 66.071C41.7319 68.638 41.6149 70.2508 41.3803 70.9095C41.1455 71.5675 40.7099 72.1197 40.0733 72.5631C39.4375 73.009 38.7165 73.2309 37.9124 73.2309C37.2089 73.2309 36.6275 73.0653 36.1698 72.733C35.7123 72.4009 35.3958 71.9505 35.2234 71.3817C35.0501 70.8132 34.9638 69.2686 34.9638 66.7461V58.5059H30.2563V69.8539C30.2563 71.5424 30.4686 72.8653 30.8921 73.8219C31.317 74.7793 32.0037 75.5222 32.9535 76.0514C33.903 76.5806 34.9747 76.845 36.1698 76.845C36.3486 76.845 36.5257 76.8386 36.7014 76.8254C36.7069 76.8254 36.7107 76.8254 36.7154 76.8247C39.7114 76.7374 41.2724 75.3671 42.0667 74.464V76.4392H46.4389V58.5059H41.7319V66.071Z" fill="black"/>
<path fill-rule="evenodd" clip-rule="evenodd" d="M60.77 71.7528C60.0389 72.6481 59.1537 73.0943 58.1148 73.0943C56.763 73.0943 55.6797 72.464 54.864 71.2032C54.2838 70.3142 53.9932 68.9407 53.9932 67.0831C53.9932 65.2818 54.3675 63.9397 55.1159 63.0561C55.8641 62.1726 56.8023 61.7307 57.9304 61.7307C59.0807 61.7307 60.0247 62.1839 60.762 63.0896C61.4989 63.9956 61.8677 65.474 61.8677 67.5214C61.8677 69.4478 61.5021 70.8569 60.77 71.7528ZM64.5645 60.4717C63.5635 59.3572 62.2197 58.6421 60.7557 58.3133C60.3363 58.2009 59.8574 58.1209 59.3249 58.0976C57.3888 57.9201 54.902 58.7007 53.7459 59.6788L54.0263 51.6826H49.3184V76.439H53.6918V75.0753C54.7001 75.8937 56.318 76.8438 58.7839 76.8438C58.8805 76.8438 58.9723 76.843 59.0611 76.8409C59.1253 76.843 59.1891 76.8438 59.2533 76.8438C61.3197 76.8438 63.0763 76.0159 64.5223 74.3617C65.9686 72.7059 66.6912 70.3484 66.6912 67.2865C66.6912 64.3249 65.982 62.0541 64.5645 60.4717Z" fill="black"/>
</svg>
