<svg width="50" height="50" viewBox="0 0 50 50" fill="none" xmlns="http://www.w3.org/2000/svg">
<g clip-path="url(#clip0_435_3223)">
<path d="M35.7729 3C31.4432 3 27.6005 4.70905 24.9971 7.64655C22.3936 4.70905 18.5509 3 14.2212 3C10.4501 3.00456 6.83482 4.50464 4.16826 7.17119C1.50171 9.83775 0.00163302 13.4531 -0.00292969 17.2241C-0.00292969 32.8147 22.8009 45.2716 23.7708 45.7953C24.1477 45.9982 24.569 46.1045 24.9971 46.1045C25.4251 46.1045 25.8465 45.9982 26.2234 45.7953C27.1932 45.2716 49.9971 32.8147 49.9971 17.2241C49.9925 13.4531 48.4924 9.83775 45.8259 7.17119C43.1593 4.50464 39.544 3.00456 35.7729 3Z" fill="#EEEEEE"/>
</g>
<defs>
<clipPath id="clip0_435_3223">
<rect width="50" height="50" fill="white" transform="translate(-0.00292969)"/>
</clipPath>
</defs>
</svg>
