<svg width="50" height="50" viewBox="0 0 50 50" fill="none" xmlns="http://www.w3.org/2000/svg">
<path d="M24.9974 4.16675C22.2615 4.16675 19.5524 4.70562 17.0248 5.75259C14.4972 6.79956 12.2006 8.33414 10.266 10.2687C6.359 14.1757 4.16406 19.4747 4.16406 25.0001C4.16406 34.2084 10.1432 42.0209 18.4141 44.7917C19.4557 44.9584 19.7891 44.3126 19.7891 43.7501V40.2292C14.0182 41.4792 12.7891 37.4376 12.7891 37.4376C11.8307 35.0209 10.4766 34.3751 10.4766 34.3751C8.58073 33.0834 10.6224 33.1251 10.6224 33.1251C12.7057 33.2709 13.8099 35.2709 13.8099 35.2709C15.6224 38.4376 18.6849 37.5001 19.8724 37.0001C20.0599 35.6459 20.6016 34.7292 21.1849 34.2084C16.5599 33.6876 11.7057 31.8959 11.7057 23.9584C11.7057 21.6459 12.4974 19.7917 13.8516 18.3126C13.6432 17.7917 12.9141 15.6251 14.0599 12.8126C14.0599 12.8126 15.8099 12.2501 19.7891 14.9376C21.4349 14.4792 23.2266 14.2501 24.9974 14.2501C26.7682 14.2501 28.5599 14.4792 30.2057 14.9376C34.1849 12.2501 35.9349 12.8126 35.9349 12.8126C37.0807 15.6251 36.3516 17.7917 36.1432 18.3126C37.4974 19.7917 38.2891 21.6459 38.2891 23.9584C38.2891 31.9167 33.4141 33.6667 28.7682 34.1876C29.5182 34.8334 30.2057 36.1042 30.2057 38.0417V43.7501C30.2057 44.3126 30.5391 44.9792 31.6016 44.7917C39.8724 42.0001 45.8307 34.2084 45.8307 25.0001C45.8307 22.2642 45.2919 19.5551 44.2449 17.0275C43.1979 14.4999 41.6633 12.2032 39.7288 10.2687C37.7942 8.33414 35.4976 6.79956 32.97 5.75259C30.4424 4.70562 27.7333 4.16675 24.9974 4.16675Z" fill="#EEEEEE"/>
</svg>
