<svg width="50" height="50" viewBox="0 0 50 50" fill="none" xmlns="http://www.w3.org/2000/svg">
<path d="M6.24707 27.0835C13.7471 10.4168 36.2471 10.4168 43.7471 27.0835" stroke="#898989" stroke-width="4" stroke-linecap="round" stroke-linejoin="round"/>
<path d="M24.9971 35.417C24.1763 35.417 23.3636 35.2553 22.6053 34.9412C21.847 34.6271 21.158 34.1668 20.5777 33.5864C19.9973 33.006 19.5369 32.317 19.2228 31.5588C18.9087 30.8005 18.7471 29.9878 18.7471 29.167C18.7471 28.3462 18.9087 27.5335 19.2228 26.7752C19.5369 26.0169 19.9973 25.3279 20.5777 24.7476C21.158 24.1672 21.847 23.7068 22.6053 23.3927C23.3636 23.0787 24.1763 22.917 24.9971 22.917C26.6547 22.917 28.2444 23.5755 29.4165 24.7476C30.5886 25.9197 31.2471 27.5094 31.2471 29.167C31.2471 30.8246 30.5886 32.4143 29.4165 33.5864C28.2444 34.7585 26.6547 35.417 24.9971 35.417Z" stroke="#898989" stroke-width="4" stroke-linecap="round" stroke-linejoin="round"/>
</svg>
