<svg width="50" height="50" viewBox="0 0 50 50" fill="none" xmlns="http://www.w3.org/2000/svg">
<g clip-path="url(#clip0_435_2844)">
<path d="M35.7729 3C31.4432 3 27.6005 4.70905 24.9971 7.64655C22.3936 4.70905 18.5509 3 14.2212 3C10.4501 3.00456 6.83482 4.50464 4.16826 7.17119C1.50171 9.83775 0.00163302 13.4531 -0.00292969 17.2241C-0.00292969 32.8147 22.8009 45.2716 23.7708 45.7953C24.1477 45.9982 24.569 46.1045 24.9971 46.1045C25.4251 46.1045 25.8465 45.9982 26.2234 45.7953C27.1932 45.2716 49.9971 32.8147 49.9971 17.2241C49.9925 13.4531 48.4924 9.83775 45.8259 7.17119C43.1593 4.50464 39.544 3.00456 35.7729 3ZM34.5897 33.681C31.5882 36.2281 28.3795 38.5205 24.9971 40.5345C21.6146 38.5205 18.406 36.2281 15.4044 33.681C10.7341 29.6746 5.16948 23.5647 5.16948 17.2241C5.16948 14.8235 6.12314 12.5211 7.82067 10.8236C9.5182 9.12607 11.8205 8.17241 14.2212 8.17241C18.0574 8.17241 21.2686 10.1983 22.6027 13.4612C22.7968 13.9369 23.1283 14.3439 23.5547 14.6305C23.9812 14.917 24.4833 15.07 24.9971 15.07C25.5108 15.07 26.013 14.917 26.4394 14.6305C26.8659 14.3439 27.1973 13.9369 27.3915 13.4612C28.7255 10.1983 31.9367 8.17241 35.7729 8.17241C38.1736 8.17241 40.4759 9.12607 42.1735 10.8236C43.871 12.5211 44.8247 14.8235 44.8247 17.2241C44.8247 23.5647 39.26 29.6746 34.5897 33.681Z" fill="#EEEEEE"/>
</g>
<defs>
<clipPath id="clip0_435_2844">
<rect width="50" height="50" fill="white" transform="translate(-0.00292969)"/>
</clipPath>
</defs>
</svg>
