<svg width="435" height="128" viewBox="0 0 435 128" fill="none" xmlns="http://www.w3.org/2000/svg">
<g filter="url(#filter0_d_196_1149)">
<rect x="12" y="12" width="62" height="92" rx="11" fill="#A44F00" stroke="#8B4300" stroke-width="2"/>
<rect x="33" y="18" width="62" height="92" rx="11" fill="#D17300" stroke="#C06A00" stroke-width="2"/>
<rect x="54" y="24" width="62" height="92" rx="11" fill="#FF9900" stroke="#DD8500" stroke-width="2"/>
</g>
<path d="M402 41.0078H411.25V55.5C412.5 54 412.89 53.6659 414 53C416.5 51.5 418.604 51.8828 421.188 51.8828C423.75 51.8828 426.073 52.5495 428.156 53.8828C430.24 55.1953 431.896 57.1641 433.125 59.7891C434.375 62.3932 435 65.5703 435 69.3203C435 72.987 434.396 76.1432 433.188 78.7891C431.979 81.4141 430.333 83.4141 428.25 84.7891C426.167 86.1432 423.812 86.8203 421.188 86.8203C418.667 86.8203 416.938 86.6562 415 86.2578C412.938 85.6562 412.5 85.5 411.125 83.8203V86.2578H402V41.0078ZM411.062 69.1641C411.062 71.2266 411.344 73.0286 411.906 74.5703C412.469 76.112 413.292 77.3099 414.375 78.1641C415.458 79.0182 416.75 79.4453 418.25 79.4453C420.542 79.4245 422.323 78.4974 423.594 76.6641C424.865 74.8307 425.5 72.3932 425.5 69.3516C425.5 66.2891 424.875 63.8411 423.625 62.0078C422.375 60.1745 420.583 59.2578 418.25 59.2578C416 59.2578 414.24 60.1536 412.969 61.9453C411.698 63.7161 411.062 66.1224 411.062 69.1641Z" fill="white"/>
<path d="M394.25 52.3672H385V71.8672C385 73.3464 384.698 74.6172 384.094 75.6797C383.49 76.7422 382.688 77.5443 381.688 78.0859C380.688 78.6276 379.604 78.9089 378.438 78.9297C376.625 78.9089 375.177 78.3151 374.094 77.1484C373.031 75.9609 372.5 74.3672 372.5 72.3672V52.3672H363.25V73.9922C363.25 76.5964 363.729 78.8568 364.688 80.7734C365.646 82.6901 366.99 84.1693 368.719 85.2109C370.448 86.2318 372.438 86.7422 374.688 86.7422C377.188 86.7422 379.688 87.0234 381.688 86.5234C383.688 86.0234 385.375 83.8123 385.375 83.8123V86.3047H394.25V52.3672Z" fill="white"/>
<path d="M324.875 86.3047H334.125V66.6797C334.125 64.4714 334.729 62.7422 335.938 61.4922C337.167 60.2422 338.771 59.6172 340.75 59.6172C342.688 59.6172 344.188 60.2109 345.25 61.3984C346.333 62.5651 346.875 64.2005 346.875 66.3047V86.3047H356.125V64.6797C356.125 62.0547 355.635 59.7839 354.656 57.8672C353.698 55.9505 352.333 54.4818 350.562 53.4609C348.792 52.4401 346.729 51.9297 344.375 51.9297C341.854 51.9297 339.5 51.9297 337.5 52.5234C335.5 53.1172 333.875 54.3047 333.875 54.3047V41.0547H324.875V86.3047Z" fill="white"/>
<path d="M302.375 86.9922C299 86.9922 296.052 86.263 293.531 84.8047C291.031 83.3255 289.104 81.263 287.75 78.6172C286.417 75.9714 285.75 72.9089 285.75 69.4297C285.75 65.9505 286.417 62.8984 287.75 60.2734C289.104 57.6276 291.031 55.5755 293.531 54.1172C296.052 52.6589 299 51.9297 302.375 51.9297C305.75 51.9297 308.688 52.6589 311.188 54.1172C313.708 55.5755 315.646 57.6276 317 60.2734C318.375 62.8984 319.062 65.9505 319.062 69.4297C319.062 72.9089 318.375 75.9714 317 78.6172C315.646 81.263 313.708 83.3255 311.188 84.8047C308.688 86.263 305.75 86.9922 302.375 86.9922ZM295.125 69.4297C295.125 71.4505 295.396 73.2422 295.938 74.8047C296.5 76.3464 297.333 77.5651 298.438 78.4609C299.542 79.3568 300.875 79.8047 302.438 79.8047C303.958 79.8047 305.26 79.3672 306.344 78.4922C307.427 77.5964 308.24 76.3776 308.781 74.8359C309.344 73.2943 309.625 71.5339 309.625 69.5547C309.625 67.513 309.354 65.7005 308.812 64.1172C308.271 62.513 307.458 61.263 306.375 60.3672C305.292 59.4505 303.979 58.9922 302.438 58.9922C300.875 58.9922 299.542 59.4401 298.438 60.3359C297.333 61.2318 296.5 62.4714 295.938 64.0547C295.396 65.6172 295.125 67.4089 295.125 69.4297Z" fill="white"/>
<path d="M281.688 59.3047H275.312V75.8672C275.292 77.138 275.552 78.0234 276.094 78.5234C276.656 79.0026 277.458 79.263 278.5 79.3047C279.458 79.3047 280.692 79.3164 282.188 79.3164V86.7422C280.754 86.7422 279.135 86.7422 277.156 86.7422C273.698 86.7422 270.979 85.9505 269 84.3672C267.021 82.763 266.042 80.3672 266.062 77.1797V59.3047H261.375V52.3672H266.062V44.2422H275.312V52.3672H281.688V59.3047Z" fill="white"/>
<path d="M241.312 86.9922C237.938 86.9922 234.99 86.263 232.469 84.8047C229.969 83.3255 228.042 81.263 226.688 78.6172C225.354 75.9714 224.688 72.9089 224.688 69.4297C224.688 65.9505 225.354 62.8984 226.688 60.2734C228.042 57.6276 229.969 55.5755 232.469 54.1172C234.99 52.6589 237.938 51.9297 241.312 51.9297C244.688 51.9297 247.625 52.6589 250.125 54.1172C252.646 55.5755 254.583 57.6276 255.938 60.2734C257.312 62.8984 258 65.9505 258 69.4297C258 72.9089 257.312 75.9714 255.938 78.6172C254.583 81.263 252.646 83.3255 250.125 84.8047C247.625 86.263 244.688 86.9922 241.312 86.9922ZM234.062 69.4297C234.062 71.4505 234.333 73.2422 234.875 74.8047C235.438 76.3464 236.271 77.5651 237.375 78.4609C238.479 79.3568 239.812 79.8047 241.375 79.8047C242.896 79.8047 244.198 79.3672 245.281 78.4922C246.365 77.5964 247.177 76.3776 247.719 74.8359C248.281 73.2943 248.562 71.5339 248.562 69.5547C248.562 67.513 248.292 65.7005 247.75 64.1172C247.208 62.513 246.396 61.263 245.312 60.3672C244.229 59.4505 242.917 58.9922 241.375 58.9922C239.812 58.9922 238.479 59.4401 237.375 60.3359C236.271 61.2318 235.438 62.4714 234.875 64.0547C234.333 65.6172 234.062 67.4089 234.062 69.4297Z" fill="white"/>
<path d="M188 86.2734H197.25V66.6484C197.25 64.4401 197.854 62.7109 199.062 61.4609C200.292 60.2109 201.896 59.5859 203.875 59.5859C205.812 59.5859 207.312 60.1797 208.375 61.3672C209.458 62.5339 210 64.1693 210 66.2734V86.2734H219.25V64.6484C219.25 62.0234 218.76 59.7526 217.781 57.8359C216.823 55.9193 215.458 54.4505 213.688 53.4297C211.917 52.4089 209.854 51.8984 207.5 51.8984C204.979 51.8984 202.625 51.8984 200.625 52.4922C198.625 53.0859 197 54.2734 197 54.2734V41.0234H188V86.2734Z" fill="white"/>
<path d="M148 41.0547H165.75C169.104 41.0547 172 41.7005 174.438 42.9922C176.875 44.2839 178.729 46.0859 180 48.3984C181.292 50.6901 181.938 53.3255 181.938 56.3047C181.938 59.3255 181.281 61.9922 179.969 64.3047C178.677 66.5964 176.792 68.3776 174.312 69.6484C171.854 70.9193 168.917 71.5547 165.5 71.5547H157.375V86.3047H148V41.0547ZM164 63.9922C166.708 63.9922 168.76 63.3047 170.156 61.9297C171.573 60.5339 172.271 58.6589 172.25 56.3047C172.271 53.9922 171.573 52.1589 170.156 50.8047C168.76 49.4505 166.708 48.763 164 48.7422H157.375V63.9922H164Z" fill="white"/>
<defs>
<filter id="filter0_d_196_1149" x="2" y="11" width="115" height="114" filterUnits="userSpaceOnUse" color-interpolation-filters="sRGB">
<feFlood flood-opacity="0" result="BackgroundImageFix"/>
<feColorMatrix in="SourceAlpha" type="matrix" values="0 0 0 0 0 0 0 0 0 0 0 0 0 0 0 0 0 0 127 0" result="hardAlpha"/>
<feOffset dx="-5" dy="4"/>
<feGaussianBlur stdDeviation="2"/>
<feComposite in2="hardAlpha" operator="out"/>
<feColorMatrix type="matrix" values="0 0 0 0 0 0 0 0 0 0 0 0 0 0 0 0 0 0 0.25 0"/>
<feBlend mode="normal" in2="BackgroundImageFix" result="effect1_dropShadow_196_1149"/>
<feBlend mode="normal" in="SourceGraphic" in2="effect1_dropShadow_196_1149" result="shape"/>
</filter>
</defs>
</svg>
