<svg width="179" height="62" viewBox="0 0 179 62" fill="none" xmlns="http://www.w3.org/2000/svg">
<path fill-rule="evenodd" clip-rule="evenodd" d="M23.272 28.2038C22.8943 28.7611 22.3729 29.1705 21.7074 29.4314C21.0418 29.6925 19.7215 29.8235 17.7484 29.8235H15.0076V22.7294H17.4272C19.2316 22.7294 20.4327 22.7867 21.0307 22.8999C21.8428 23.0483 22.5136 23.4174 23.044 24.0083C23.5737 24.5999 23.8391 25.3496 23.8391 26.2594C23.8391 26.9983 23.6499 27.6465 23.272 28.2038ZM23.9914 18.8754C23.0667 18.625 21.0815 18.5 18.0361 18.5H10V43.5H15.0077V34.07H18.2727C20.5399 34.07 22.2712 33.9502 23.4665 33.7118C24.3472 33.5182 25.2123 33.1229 26.0642 32.5265C26.9151 31.93 27.617 31.1083 28.1704 30.0617C28.7229 29.0168 28.9994 27.7264 28.9994 26.1909C28.9994 24.2017 28.5196 22.5789 27.5612 21.3224C26.6023 20.0666 25.4122 19.2505 23.9914 18.8754Z" fill="#EEEEEE"/>
<path d="M36.4365 43.5H31.8115V20.875H36.3115V29.5H36.499C36.8949 28.4896 37.5199 27.7083 38.374 27.1562C39.2386 26.5938 40.3011 26.3125 41.5615 26.3125C42.7386 26.3125 43.7699 26.5677 44.6553 27.0781C45.5407 27.5885 46.223 28.3229 46.7021 29.2812C47.1917 30.2396 47.4365 31.375 47.4365 32.6875V43.5H42.8115V33.5C42.8115 32.4479 42.5407 31.6302 41.999 31.0469C41.4678 30.4531 40.7178 30.1562 39.749 30.1562C38.7594 30.1562 37.9574 30.4688 37.3428 31.0938C36.7386 31.7188 36.4365 32.5833 36.4365 33.6875V43.5Z" fill="#EEEEEE"/>
<path fill-rule="evenodd" clip-rule="evenodd" d="M62.1291 38.7062C61.3739 39.5636 60.4395 39.9924 59.3256 39.9924C58.211 39.9924 57.2742 39.5636 56.5143 38.7062C55.7548 37.848 55.3752 36.6124 55.3752 34.9997C55.3752 33.3864 55.7548 32.151 56.5143 31.2931C57.2742 30.4357 58.211 30.007 59.3256 30.007C60.4395 30.007 61.3739 30.4357 62.1291 31.2931C62.8836 32.151 63.2606 33.3766 63.2606 34.9692C63.2606 36.6032 62.8836 37.848 62.1291 38.7062ZM59.31 26.5C57.73 26.5 56.2994 26.8519 55.0185 27.5569C53.7361 28.261 52.7467 29.2819 52.0475 30.6195C51.3487 31.9571 50.999 33.3405 50.999 34.77C50.999 36.6383 51.3487 38.2238 52.0475 39.525C52.7467 40.8272 53.7667 41.8151 55.1093 42.4882C56.4513 43.1619 57.8619 43.5 59.3409 43.5C61.7311 43.5 63.7141 42.6902 65.2891 41.0718C66.8642 39.4539 67.6519 37.4143 67.6519 34.9529C67.6519 32.5135 66.8722 30.494 65.3122 28.8968C63.7517 27.2991 61.7514 26.5 59.31 26.5Z" fill="#EEEEEE"/>
<path d="M79.4023 30H76.2148V38.2812C76.2044 38.9167 76.3346 39.3594 76.6055 39.6094C76.8867 39.849 77.2878 39.9792 77.8086 40C78.2878 40 78.9023 39.9688 79.6523 39.9062V43.5625C78.9648 43.6667 78.1263 43.7188 77.1367 43.7188C75.4076 43.7188 74.0482 43.3229 73.0586 42.5312C72.069 41.7292 71.5794 40.5312 71.5898 38.9375V30H69.2461V26.5312H71.5898V22.4688H76.2148V26.5312H79.4023V30Z" fill="#EEEEEE"/>
<path fill-rule="evenodd" clip-rule="evenodd" d="M92.7824 38.7062C92.0272 39.5636 91.0928 39.9924 89.9789 39.9924C88.8643 39.9924 87.9275 39.5636 87.1677 38.7062C86.4081 37.848 86.0285 36.6124 86.0285 34.9997C86.0285 33.3864 86.4081 32.151 87.1677 31.2931C87.9275 30.4357 88.8643 30.007 89.9789 30.007C91.0928 30.007 92.0272 30.4357 92.7824 31.2931C93.5369 32.151 93.9139 33.3766 93.9139 34.9692C93.9139 36.6032 93.5369 37.848 92.7824 38.7062ZM89.9634 26.5C88.3833 26.5 86.9527 26.8519 85.6718 27.5569C84.3895 28.261 83.4 29.2819 82.7008 30.6195C82.002 31.9571 81.6523 33.3405 81.6523 34.77C81.6523 36.6383 82.002 38.2238 82.7008 39.525C83.4 40.8272 84.42 41.8151 85.7626 42.4882C87.1046 43.1619 88.5152 43.5 89.9942 43.5C92.3844 43.5 94.3674 42.6902 95.9425 41.0718C97.5175 39.4539 98.3052 37.4143 98.3052 34.9529C98.3052 32.5135 97.5255 30.494 95.9655 28.8968C94.4051 27.2991 92.4047 26.5 89.9634 26.5Z" fill="#EEEEEE"/>
<path fill-rule="evenodd" clip-rule="evenodd" d="M165.285 10.5225H106.326C104.492 10.7298 103.483 11.8603 103.305 13.9242V48.0753C103.481 50.136 104.488 51.2621 106.31 51.4778H165.299C167.122 51.2621 168.128 50.1351 168.305 48.0753V13.9242C168.127 11.8603 167.118 10.7298 165.285 10.5225Z" fill="#FF9000"/>
<path fill-rule="evenodd" clip-rule="evenodd" d="M123.826 26.2614C123.385 25.6317 122.73 25.1134 121.858 24.7082C121.07 24.3419 120.196 24.1426 119.236 24.1073C119.219 24.1062 119.204 24.1051 119.188 24.1044C117.204 23.9978 114.666 24.5812 113.482 25.7296V17.6829H108.774V42.4385H113.482V33.4559C113.482 31.9468 113.625 30.8071 113.909 30.0363C114.195 29.2638 114.643 28.6871 115.258 28.3045C115.872 27.9222 116.57 27.7302 117.352 27.7302C118.033 27.7302 118.601 27.8796 119.052 28.1779C119.505 28.4766 119.82 28.8792 119.999 29.3855C120.177 29.8927 120.267 31.0853 120.267 32.9652V42.4385H124.974V31.9182C124.974 30.3088 124.893 29.1208 124.731 28.3558C124.569 27.5898 124.267 26.8918 123.826 26.2614Z" fill="black"/>
<path fill-rule="evenodd" clip-rule="evenodd" d="M139.188 32.0705C139.188 34.6375 139.071 36.2503 138.837 36.909C138.602 37.567 138.166 38.1192 137.53 38.5626C136.894 39.0085 136.173 39.2304 135.369 39.2304C134.665 39.2304 134.084 39.0648 133.626 38.7325C133.169 38.4004 132.852 37.95 132.68 37.3812C132.507 36.8127 132.42 35.2681 132.42 32.7456V24.5054H127.713V35.8534C127.713 37.5419 127.925 38.8648 128.349 39.8214C128.774 40.7788 129.46 41.5217 130.41 42.0509C131.36 42.5801 132.431 42.8445 133.626 42.8445C133.805 42.8445 133.982 42.8381 134.158 42.8249C134.163 42.8249 134.167 42.8249 134.172 42.8242C137.168 42.7369 138.729 41.3666 139.523 40.4635V42.4387H143.895V24.5054H139.188V32.0705Z" fill="black"/>
<path fill-rule="evenodd" clip-rule="evenodd" d="M158.227 37.7536C157.496 38.6488 156.611 39.095 155.572 39.095C154.22 39.095 153.137 38.4647 152.321 37.2039C151.741 36.315 151.45 34.9415 151.45 33.0838C151.45 31.2826 151.825 29.9405 152.573 29.0568C153.321 28.1734 154.259 27.7315 155.387 27.7315C156.538 27.7315 157.482 28.1846 158.219 29.0903C158.956 29.9963 159.325 31.4747 159.325 33.5222C159.325 35.4486 158.959 36.8577 158.227 37.7536ZM162.022 26.4724C161.021 25.358 159.677 24.6428 158.213 24.314C157.793 24.2016 157.314 24.1216 156.782 24.0983C154.846 23.9208 152.359 24.7014 151.203 25.6795L151.483 17.6833H146.775V42.4397H151.149V41.076C152.157 41.8944 153.775 42.8446 156.241 42.8446C156.338 42.8446 156.429 42.8438 156.518 42.8417C156.582 42.8438 156.646 42.8446 156.71 42.8446C158.777 42.8446 160.533 42.0167 161.979 40.3624C163.426 38.7066 164.148 36.3491 164.148 33.2872C164.148 30.3257 163.439 28.0548 162.022 26.4724Z" fill="black"/>
</svg>
