<svg width="50" height="50" viewBox="0 0 50 50" fill="none" xmlns="http://www.w3.org/2000/svg">
<g clip-path="url(#clip0_435_2840)">
<path d="M2.5 10C2.5 8.01088 3.29018 6.10322 4.6967 4.6967C6.10322 3.29018 8.01088 2.5 10 2.5H40C41.9891 2.5 43.8968 3.29018 45.3033 4.6967C46.7098 6.10322 47.5 8.01088 47.5 10V40C47.5 41.9891 46.7098 43.8968 45.3033 45.3033C43.8968 46.7098 41.9891 47.5 40 47.5H10C8.01088 47.5 6.10322 46.7098 4.6967 45.3033C3.29018 43.8968 2.5 41.9891 2.5 40V10Z" stroke="#EEEEEE" stroke-width="5" stroke-linecap="round" stroke-linejoin="round"/>
<path d="M23.5 18C23.5 21.0376 21.0376 23.5 18 23.5C14.9624 23.5 12.5 21.0376 12.5 18C12.5 14.9624 14.9624 12.5 18 12.5C21.0376 12.5 23.5 14.9624 23.5 18Z" stroke="#EEEEEE" stroke-width="5" stroke-linecap="round" stroke-linejoin="round"/>
<path d="M36.8572 28.2269L36.8574 28.2271L46.9288 39.2107L46.9324 39.2146L46.9823 39.2693C47.1664 39.4708 47.2823 39.5977 47.381 39.7157C47.4428 39.7896 47.4765 39.8353 47.4938 39.8605C47.4967 39.8864 47.5 39.9313 47.5 40V40.3325C47.5 42.2334 46.7449 44.0565 45.4007 45.4007C44.0565 46.7449 42.2334 47.5 40.3325 47.5H15.6512L33.1647 28.2344C33.3984 27.9773 33.6832 27.7718 34.0008 27.6309C34.3184 27.4901 34.6618 27.417 35.0093 27.4163C35.3567 27.4156 35.7005 27.4873 36.0186 27.6269C36.3368 27.7664 36.6224 27.9708 36.8572 28.2269Z" stroke="#EEEEEE" stroke-width="5" stroke-linecap="round" stroke-linejoin="round"/>
</g>
<defs>
<clipPath id="clip0_435_2840">
<rect width="50" height="50" fill="white"/>
</clipPath>
</defs>
</svg>
