<svg width="50" height="50" viewBox="0 0 50 50" fill="none" xmlns="http://www.w3.org/2000/svg">
<g clip-path="url(#clip0_435_2841)">
<path d="M49.9971 25C49.9971 25.7956 49.681 26.5587 49.1184 27.1213C48.5558 27.6839 47.7927 28 46.9971 28H27.9971V47C27.9971 47.7957 27.681 48.5587 27.1184 49.1213C26.5558 49.6839 25.7927 50 24.9971 50C24.2014 50 23.4384 49.6839 22.8757 49.1213C22.3131 48.5587 21.9971 47.7957 21.9971 47V28H2.99707C2.20142 28 1.43836 27.6839 0.87575 27.1213C0.313141 26.5587 -0.00292969 25.7956 -0.00292969 25C-0.00292969 24.2044 0.313141 23.4413 0.87575 22.8787C1.43836 22.3161 2.20142 22 2.99707 22H21.9971V3C21.9971 2.20435 22.3131 1.44129 22.8757 0.87868C23.4384 0.316071 24.2014 0 24.9971 0C25.7927 0 26.5558 0.316071 27.1184 0.87868C27.681 1.44129 27.9971 2.20435 27.9971 3V22H46.9971C47.7927 22 48.5558 22.3161 49.1184 22.8787C49.681 23.4413 49.9971 24.2044 49.9971 25Z" fill="#EEEEEE"/>
</g>
<defs>
<clipPath id="clip0_435_2841">
<rect width="50" height="50" fill="white" transform="translate(-0.00292969)"/>
</clipPath>
</defs>
</svg>
