<svg width="50" height="50" viewBox="0 0 50 50" fill="none" xmlns="http://www.w3.org/2000/svg">
<g clip-path="url(#clip0_435_2842)">
<path fill-rule="evenodd" clip-rule="evenodd" d="M34.0911 18.1822C34.0911 20.5933 33.1332 22.9056 31.4282 24.6105C29.7235 26.3153 27.4111 27.2731 25.0001 27.2731C22.589 27.2731 20.2767 26.3153 18.5718 24.6105C16.867 22.9056 15.9092 20.5933 15.9092 18.1822C15.9092 15.7712 16.867 13.4588 18.5718 11.754C20.2767 10.0491 22.589 9.09131 25.0001 9.09131C27.4111 9.09131 29.7235 10.0491 31.4282 11.754C33.1332 13.4588 34.0911 15.7712 34.0911 18.1822ZM29.5455 18.1822C29.5455 19.3877 29.0666 20.5439 28.2142 21.3963C27.3618 22.2488 26.2056 22.7277 25.0001 22.7277C23.7946 22.7277 22.6384 22.2488 21.786 21.3963C20.9335 20.5439 20.4546 19.3877 20.4546 18.1822C20.4546 16.9767 20.9335 15.8205 21.786 14.9681C22.6384 14.1157 23.7946 13.6368 25.0001 13.6368C26.2056 13.6368 27.3618 14.1157 28.2142 14.9681C29.0666 15.8205 29.5455 16.9767 29.5455 18.1822Z" fill="#EEEEEE"/>
<path fill-rule="evenodd" clip-rule="evenodd" d="M24.9971 0C11.1903 0 -0.00292969 11.1932 -0.00292969 25C-0.00292969 38.8069 11.1903 50 24.9971 50C38.8039 50 49.9971 38.8069 49.9971 25C49.9971 11.1932 38.8039 0 24.9971 0ZM4.54254 25C4.54254 29.75 6.16298 34.1228 8.87888 37.5953C10.7862 35.0906 13.2469 33.0609 16.0685 31.6644C18.8902 30.2679 21.9965 29.5427 25.1448 29.5455C28.2524 29.5425 31.3196 30.2489 34.1127 31.6109C36.9061 32.9728 39.3514 34.9544 41.263 37.4047C43.2321 34.8219 44.558 31.8072 45.1308 28.6104C45.7036 25.4136 45.5071 22.1262 44.5574 19.0204C43.6074 15.9146 41.9318 13.0797 39.6686 10.7501C37.4055 8.4205 34.6205 6.66331 31.5433 5.62388C28.4664 4.58444 25.1862 4.29266 21.974 4.77266C18.7619 5.25266 15.7102 6.49066 13.0715 8.38422C10.4329 10.2778 8.28301 12.7724 6.79985 15.6618C5.31673 18.5512 4.54295 21.7522 4.54254 25ZM24.9971 45.4547C20.3015 45.4616 15.7477 43.8462 12.1062 40.8819C13.5719 38.7834 15.5229 37.0703 17.793 35.8878C20.0631 34.7056 22.5852 34.0891 25.1448 34.0909C27.6724 34.0887 30.1641 34.69 32.4127 35.8441C34.6614 36.9984 36.6024 38.6725 38.0743 40.7272C34.4046 43.7878 29.7757 45.4613 24.9971 45.4547Z" fill="#EEEEEE"/>
</g>
<defs>
<clipPath id="clip0_435_2842">
<rect width="50" height="50" fill="white" transform="translate(-0.00292969)"/>
</clipPath>
</defs>
</svg>
