<svg width="50" height="50" viewBox="0 0 50 50" fill="none" xmlns="http://www.w3.org/2000/svg">
<path d="M37.4971 45.8332C35.761 45.8332 34.2853 45.2255 33.07 44.0103C31.8547 42.795 31.2471 41.3193 31.2471 39.5832C31.2471 39.3401 31.2644 39.088 31.2992 38.8269C31.3339 38.5658 31.386 38.3318 31.4554 38.1248L16.7679 29.5832C16.1776 30.104 15.5179 30.5123 14.7887 30.8082C14.0596 31.104 13.2957 31.2512 12.4971 31.2498C10.761 31.2498 9.28526 30.6422 8.06999 29.4269C6.85471 28.2116 6.24707 26.736 6.24707 24.9998C6.24707 23.2637 6.85471 21.788 8.06999 20.5728C9.28526 19.3575 10.761 18.7498 12.4971 18.7498C13.2957 18.7498 14.0596 18.8978 14.7887 19.1936C15.5179 19.4894 16.1776 19.8971 16.7679 20.4165L31.4554 11.8748C31.386 11.6665 31.3339 11.4325 31.2992 11.1728C31.2644 10.913 31.2471 10.6609 31.2471 10.4165C31.2471 8.68039 31.8547 7.2047 33.07 5.98942C34.2853 4.77414 35.761 4.1665 37.4971 4.1665C39.2332 4.1665 40.7089 4.77414 41.9242 5.98942C43.1394 7.2047 43.7471 8.68039 43.7471 10.4165C43.7471 12.1526 43.1394 13.6283 41.9242 14.8436C40.7089 16.0589 39.2332 16.6665 37.4971 16.6665C36.6985 16.6665 35.9346 16.5193 35.2054 16.2248C34.4762 15.9304 33.8165 15.5221 33.2262 14.9998L18.5387 23.5415C18.6082 23.7498 18.6603 23.9846 18.695 24.2457C18.7297 24.5068 18.7471 24.7582 18.7471 24.9998C18.7471 25.2415 18.7297 25.4936 18.695 25.7561C18.6603 26.0186 18.6082 26.2526 18.5387 26.4582L33.2262 34.9998C33.8165 34.479 34.4762 34.0714 35.2054 33.7769C35.9346 33.4825 36.6985 33.3346 37.4971 33.3332C39.2332 33.3332 40.7089 33.9408 41.9242 35.1561C43.1394 36.3714 43.7471 37.8471 43.7471 39.5832C43.7471 41.3193 43.1394 42.795 41.9242 44.0103C40.7089 45.2255 39.2332 45.8332 37.4971 45.8332Z" fill="#EEEEEE"/>
</svg>
