<svg width="50" height="50" viewBox="0 0 50 50" fill="none" xmlns="http://www.w3.org/2000/svg">
<g clip-path="url(#clip0_1_212)">
<path d="M24.9971 0C38.8046 0 49.9971 11.1925 49.9971 25C49.9971 38.8075 38.8046 50 24.9971 50C11.1896 50 -0.00292969 38.8075 -0.00292969 25C-0.00292969 11.1925 11.1896 0 24.9971 0ZM24.9971 5C19.6927 5 14.6057 7.10714 10.8549 10.8579C7.10421 14.6086 4.99707 19.6957 4.99707 25C4.99707 30.3043 7.10421 35.3914 10.8549 39.1421C14.6057 42.8929 19.6927 45 24.9971 45C30.3014 45 35.3885 42.8929 39.1392 39.1421C42.8899 35.3914 44.9971 30.3043 44.9971 25C44.9971 19.6957 42.8899 14.6086 39.1392 10.8579C35.3885 7.10714 30.3014 5 24.9971 5ZM24.9971 32.5C25.6601 32.5 26.296 32.7634 26.7648 33.2322C27.2337 33.7011 27.4971 34.337 27.4971 35C27.4971 35.663 27.2337 36.2989 26.7648 36.7678C26.296 37.2366 25.6601 37.5 24.9971 37.5C24.334 37.5 23.6981 37.2366 23.2293 36.7678C22.7605 36.2989 22.4971 35.663 22.4971 35C22.4971 34.337 22.7605 33.7011 23.2293 33.2322C23.6981 32.7634 24.334 32.5 24.9971 32.5ZM24.9971 10C25.6601 10 26.296 10.2634 26.7648 10.7322C27.2337 11.2011 27.4971 11.837 27.4971 12.5V27.5C27.4971 28.163 27.2337 28.7989 26.7648 29.2678C26.296 29.7366 25.6601 30 24.9971 30C24.334 30 23.6981 29.7366 23.2293 29.2678C22.7605 28.7989 22.4971 28.163 22.4971 27.5V12.5C22.4971 11.837 22.7605 11.2011 23.2293 10.7322C23.6981 10.2634 24.334 10 24.9971 10Z" fill="#EEEEEE"/>
</g>
<defs>
<clipPath id="clip0_1_212">
<rect width="50" height="50" fill="white" transform="translate(-0.00292969)"/>
</clipPath>
</defs>
</svg>
