<svg width="50" height="50" viewBox="0 0 50 50" fill="none" xmlns="http://www.w3.org/2000/svg">
<g clip-path="url(#clip0_435_3181)">
<path d="M48.9437 43.8952C49.6143 44.5659 49.9911 45.4755 49.9911 46.4239C49.9911 47.3723 49.6143 48.2819 48.9437 48.9526C48.273 49.6232 47.3634 50 46.415 50C45.4665 50 44.5569 49.6232 43.8863 48.9526L24.9985 30.0589L6.10478 48.9466C5.43413 49.6173 4.52454 49.9941 3.5761 49.9941C2.62766 49.9941 1.71806 49.6173 1.04742 48.9466C0.376767 48.276 9.99344e-09 47.3664 0 46.418C-9.99344e-09 45.4695 0.376767 44.5599 1.04742 43.8893L19.9411 25.0015L1.05336 6.10776C0.382716 5.43711 0.00594997 4.52751 0.00594998 3.57907C0.00594999 2.63063 0.382716 1.72104 1.05336 1.05039C1.72401 0.379741 2.63361 0.00297443 3.58205 0.00297442C4.53049 0.00297441 5.44008 0.379741 6.11073 1.05039L24.9985 19.9441L43.8922 1.04741C44.5629 0.376766 45.4725 -1.5801e-08 46.4209 0C47.3694 1.5801e-08 48.279 0.376766 48.9496 1.04741C49.6203 1.71806 49.997 2.62766 49.997 3.5761C49.997 4.52454 49.6203 5.43413 48.9496 6.10478L30.0559 25.0015L48.9437 43.8952Z" fill="#EEEEEE"/>
</g>
<defs>
<clipPath id="clip0_435_3181">
<rect width="49.997" height="50" fill="white"/>
</clipPath>
</defs>
</svg>
