<svg width="50" height="50" viewBox="0 0 50 50" fill="none" xmlns="http://www.w3.org/2000/svg">
<path d="M11.8889 39.5835H17.7056C18.0014 39.5835 18.2486 39.6835 18.4472 39.8835C18.6459 40.0835 18.7459 40.3314 18.7472 40.6272C18.7486 40.9231 18.6486 41.1703 18.4472 41.3689C18.2459 41.5675 17.9986 41.6668 17.7056 41.6668H10.0139C9.53752 41.6668 9.13752 41.5057 8.81391 41.1835C8.4903 40.8613 8.32919 40.4613 8.33058 39.9835V32.2918C8.33058 31.996 8.43058 31.7488 8.63058 31.5502C8.83058 31.3516 9.07849 31.2516 9.37433 31.2502C9.67016 31.2488 9.91738 31.3488 10.116 31.5502C10.3146 31.7516 10.4139 31.9988 10.4139 32.2918V38.1085L17.1764 31.346C17.3709 31.1515 17.6097 31.0474 17.8931 31.0335C18.1764 31.0196 18.4292 31.1238 18.6514 31.346C18.8736 31.5682 18.9847 31.814 18.9847 32.0835C18.9847 32.3529 18.8736 32.5988 18.6514 32.821L11.8889 39.5835ZM39.5806 11.8918L32.8181 18.6543C32.6236 18.8488 32.3847 18.9529 32.1014 18.9668C31.8181 18.9807 31.5653 18.8766 31.3431 18.6543C31.1209 18.4321 31.0097 18.1863 31.0097 17.9168C31.0097 17.6474 31.1209 17.4016 31.3431 17.1793L38.1056 10.4168H32.2889C31.9931 10.4168 31.7459 10.3168 31.5472 10.1168C31.3486 9.91683 31.2486 9.66891 31.2472 9.37308C31.2459 9.07725 31.3459 8.83002 31.5472 8.63141C31.7486 8.4328 31.9959 8.3335 32.2889 8.3335H39.9806C40.4583 8.3335 40.8584 8.49461 41.1806 8.81683C41.5028 9.13905 41.6639 9.53905 41.6639 10.0168V17.7085C41.6639 18.0043 41.5639 18.2516 41.3639 18.4502C41.1639 18.6488 40.916 18.7488 40.6202 18.7502C40.3243 18.7516 40.0771 18.6516 39.8785 18.4502C39.6799 18.2488 39.5806 18.0016 39.5806 17.7085V11.8918Z" fill="#EEEEEE" stroke="#EEEEEE" stroke-width="2"/>
</svg>
